<?xml version="1.0" encoding="UTF-8" standalone="no"?>
<!-- Created with Inkscape (http://www.inkscape.org/) -->

<svg
   xmlns:dc="http://purl.org/dc/elements/1.1/"
   xmlns:cc="http://creativecommons.org/ns#"
   xmlns:rdf="http://www.w3.org/1999/02/22-rdf-syntax-ns#"
   xmlns:svg="http://www.w3.org/2000/svg"
   xmlns="http://www.w3.org/2000/svg"
   xmlns:xlink="http://www.w3.org/1999/xlink"
   xmlns:sodipodi="http://sodipodi.sourceforge.net/DTD/sodipodi-0.dtd"
   xmlns:inkscape="http://www.inkscape.org/namespaces/inkscape"
   width="288"
   height="18"
   id="svg2"
   version="1.1"
   inkscape:version="0.48.4 r9939"
   sodipodi:docname="toolbar.svg"
   inkscape:export-filename="C:\xul\verticaltoolbar\chrome\skin\classic\verticaltoolbar\toolbar.png"
   inkscape:export-xdpi="90"
   inkscape:export-ydpi="90">
  <defs
     id="defs4">
    <linearGradient
       id="linearGradient-win"
       x1="5"
       y1="1021.3622"
       x2="5"
       y2="1029.3622"
       gradientUnits="userSpaceOnUse"
       gradientTransform="matrix(1.5,0,0,1.75,-4.5,-769.02164)">
      <stop
         style="stop-color:#596470;stop-opacity:1;"
         offset="0"
         id="stop3820" />
      <stop
         style="stop-color:#768593;stop-opacity:1;"
         offset="1"
         id="stop3822" />
    </linearGradient>
    <linearGradient
       id="linearGradient-linux"
       x1="23"
       y1="1021.3622"
       x2="23"
       y2="1029.3622"
       gradientUnits="userSpaceOnUse"
       gradientTransform="matrix(1.5,0,0,1.75,-13.5,-769.02164)">
      <stop
         style="stop-color:#625e53;stop-opacity:1;"
         offset="0"
         id="stop3832" />
      <stop
         style="stop-color:#868172;stop-opacity:1;"
         offset="1"
         id="stop3834" />
    </linearGradient>
    <linearGradient
       id="linearGradient-mac"
       x1="41"
       y1="1021.3622"
       x2="41"
       y2="1029.3622"
       gradientUnits="userSpaceOnUse"
       gradientTransform="matrix(1.5,0,0,1.75,-22.5,-787.02162)">
      <stop
         id="stop3844"
         offset="0"
         style="stop-color:#7c7c7c;stop-opacity:1;" />
      <stop
         id="stop3846"
         offset="1"
         style="stop-color:#a2a2a2;stop-opacity:1;" />
    </linearGradient>
    <linearGradient
       inkscape:collect="always"
       xlink:href="#linearGradient-win"
       id="linearGradient4213"
       x1="0"
       y1="1036.3622"
       x2="0"
       y2="1050.3622"
       gradientUnits="userSpaceOnUse" />
    <linearGradient
       inkscape:collect="always"
       xlink:href="#linearGradient-win"
       id="linearGradient4231"
       x1="23.46875"
       y1="1044.8622"
       x2="30.53125"
       y2="1044.8622"
       gradientUnits="userSpaceOnUse" />
    <linearGradient
       inkscape:collect="always"
       xlink:href="#linearGradient-win"
       id="linearGradient4247"
       x1="42"
       y1="1044.8622"
       x2="48"
       y2="1044.8622"
       gradientUnits="userSpaceOnUse" />
    <linearGradient
       inkscape:collect="always"
       xlink:href="#linearGradient-win"
       id="linearGradient4255"
       x1="54"
       y1="2"
       x2="54"
       y2="16"
       gradientUnits="userSpaceOnUse" />
    <linearGradient
       inkscape:collect="always"
       xlink:href="#linearGradient-win"
       id="linearGradient4263"
       x1="54"
       y1="1036.3622"
       x2="54"
       y2="1050.3622"
       gradientUnits="userSpaceOnUse" />
    <linearGradient
       inkscape:collect="always"
       xlink:href="#linearGradient-win"
       id="linearGradient4271"
       x1="54"
       y1="1036.3622"
       x2="54"
       y2="1050.3622"
       gradientUnits="userSpaceOnUse" />
    <linearGradient
       inkscape:collect="always"
       xlink:href="#linearGradient-win"
       id="linearGradient4279"
       x1="72"
       y1="2"
       x2="72"
       y2="16"
       gradientUnits="userSpaceOnUse" />
    <linearGradient
       inkscape:collect="always"
       xlink:href="#linearGradient-win"
       id="linearGradient4287"
       x1="90"
       y1="2"
       x2="90"
       y2="16"
       gradientUnits="userSpaceOnUse" />
    <linearGradient
       inkscape:collect="always"
       xlink:href="#linearGradient-win"
       id="linearGradient4295"
       x1="108"
       y1="1035.3622"
       x2="108"
       y2="1050.3622"
       gradientUnits="userSpaceOnUse" />
    <linearGradient
       inkscape:collect="always"
       xlink:href="#linearGradient-win"
       id="linearGradient4303"
       x1="108"
       y1="2"
       x2="108"
       y2="16"
       gradientUnits="userSpaceOnUse" />
    <linearGradient
       inkscape:collect="always"
       xlink:href="#linearGradient-win"
       id="linearGradient4351"
       x1="162"
       y1="1036.3622"
       x2="162"
       y2="1050.3622"
       gradientUnits="userSpaceOnUse" />
    <linearGradient
       inkscape:collect="always"
       xlink:href="#linearGradient-win"
       id="linearGradient4359"
       x1="162"
       y1="1036.3622"
       x2="162"
       y2="1050.3622"
       gradientUnits="userSpaceOnUse" />
    <linearGradient
       inkscape:collect="always"
       xlink:href="#linearGradient-win"
       id="linearGradient4369"
       x1="180"
       y1="2"
       x2="180"
       y2="16"
       gradientUnits="userSpaceOnUse" />
    <linearGradient
       inkscape:collect="always"
       xlink:href="#linearGradient-win"
       id="linearGradient4377"
       x1="189"
       y1="8"
       x2="196"
       y2="15"
       gradientUnits="userSpaceOnUse" />
    <linearGradient
       inkscape:collect="always"
       xlink:href="#linearGradient-win"
       id="linearGradient4385"
       x1="198"
       y1="2"
       x2="198"
       y2="16"
       gradientUnits="userSpaceOnUse" />
    <linearGradient
       inkscape:collect="always"
       xlink:href="#linearGradient-win"
       id="linearGradient4393"
       x1="202"
       y1="26.5"
       x2="209"
       y2="26.5"
       gradientUnits="userSpaceOnUse" />
    <linearGradient
       inkscape:collect="always"
       xlink:href="#linearGradient-win"
       id="linearGradient4401"
       x1="216"
       y1="1037.3622"
       x2="216"
       y2="1049.3622"
       gradientUnits="userSpaceOnUse" />
    <linearGradient
       inkscape:collect="always"
       xlink:href="#linearGradient-win"
       id="linearGradient4409"
       x1="234"
       y1="6"
       x2="234"
       y2="8"
       gradientUnits="userSpaceOnUse" />
    <linearGradient
       inkscape:collect="always"
       xlink:href="#linearGradient-win"
       id="linearGradient4417"
       x1="234"
       y1="1044.3622"
       x2="234"
       y2="1046.3622"
       gradientUnits="userSpaceOnUse" />
    <linearGradient
       inkscape:collect="always"
       xlink:href="#linearGradient-win"
       id="linearGradient4445"
       x1="252"
       y1="1036.3622"
       x2="252"
       y2="1050.3622"
       gradientUnits="userSpaceOnUse" />
    <linearGradient
       inkscape:collect="always"
       xlink:href="#linearGradient-win"
       id="linearGradient4453"
       x1="270"
       y1="2"
       x2="270"
       y2="16"
       gradientUnits="userSpaceOnUse" />
    <linearGradient
       inkscape:collect="always"
       xlink:href="#linearGradient-win"
       id="linearGradient4461"
       x1="270"
       y1="1036.3622"
       x2="270"
       y2="1050.3622"
       gradientUnits="userSpaceOnUse" />
    <linearGradient
       inkscape:collect="always"
       xlink:href="#linearGradient-win"
       id="linearGradient4567"
       gradientUnits="userSpaceOnUse"
       x1="18"
       y1="1036.3622"
       x2="18"
       y2="1050.3622" />
    <linearGradient
       inkscape:collect="always"
       xlink:href="#linearGradient-win"
       id="linearGradient4973"
       gradientUnits="userSpaceOnUse"
       x1="135"
       y1="1043.3622"
       x2="128"
       y2="1050.3622" />
    <filter
       id="filter5189-7"
       inkscape:label="Drop shadow"
       inkscape:menu="Shadows and Glows"
       inkscape:menu-tooltip="Adds a colorizable drop shadow inside"
       color-interpolation-filters="sRGB"
       x="-0.5"
       y="-0.25"
       width="2"
       height="1.5">
      <feGaussianBlur
         id="feGaussianBlur5191-6"
         stdDeviation="1"
         result="result8" />
      <feOffset
         id="feOffset5193-1"
         dx="0"
         dy="1"
         result="result11" />
      <feComposite
         id="feComposite5195-4"
         in2="result11"
         result="result6"
         in="SourceGraphic"
         operator="atop" />
      <feFlood
         id="feFlood5197-2"
         result="result10"
         in="result6"
         flood-opacity="0.25"
         flood-color="rgb(0,0,0)" />
      <feBlend
         id="feBlend5199-3"
         in2="result10"
         mode="normal"
         in="result6"
         result="result12" />
      <feComposite
         id="feComposite5201-2"
         in2="SourceGraphic"
         result="fbSourceGraphic"
         operator="atop" />
      <feColorMatrix
         result="fbSourceGraphicAlpha"
         in="fbSourceGraphic"
         values="0 0 0 -1 0 0 0 0 -1 0 0 0 0 -1 0 0 0 0 1 0"
         id="feColorMatrix2930-2"
         type="luminanceToAlpha" />
      <feGaussianBlur
         id="feGaussianBlur2932-1"
         stdDeviation="1"
         result="result8"
         in="fbSourceGraphic" />
      <feOffset
         id="feOffset2934-6"
         dx="0"
         dy="0"
         result="result11" />
      <feComposite
         id="feComposite2936-8"
         in2="result11"
         result="result6"
         in="fbSourceGraphic"
         operator="atop" />
      <feFlood
         id="feFlood2938-5"
         result="result10"
         in="result6"
         flood-opacity="1"
         flood-color="rgb(48,48,48)" />
      <feBlend
         id="feBlend2940-7"
         in2="result10"
         mode="normal"
         in="result6"
         result="result13" />
      <feComposite
         id="feComposite2942-6"
         in2="fbSourceGraphic"
         result="fbSourceGraphic"
         operator="atop" />
      <feColorMatrix
         result="fbSourceGraphicAlpha"
         in="fbSourceGraphic"
         values="0 0 0 -1 0 0 0 0 -1 0 0 0 0 -1 0 0 0 0 1 0"
         id="feColorMatrix3252-1" />
      <feGaussianBlur
         id="feGaussianBlur3254-8"
         in="fbSourceGraphicAlpha"
         stdDeviation="0.40000000000000002"
         result="blur" />
      <feColorMatrix
         id="feColorMatrix3256-9"
         result="bluralpha"
         type="matrix"
         values="-1 0 0 0 1 0 -1 0 0 1 0 0 -1 0 1 0 0 0 0.25 0 " />
      <feOffset
         id="feOffset3258-2"
         in="bluralpha"
         dx="0.000000"
         dy="1"
         result="offsetBlur" />
      <feMerge
         id="feMerge3260-7"
         result="fbSourceGraphic">
        <feMergeNode
           id="feMergeNode3262-9"
           in="offsetBlur" />
        <feMergeNode
           id="feMergeNode3264-5"
           in="fbSourceGraphic" />
      </feMerge>
      <feColorMatrix
         result="fbSourceGraphicAlpha"
         in="fbSourceGraphic"
         values="0 0 0 -1 0 0 0 0 -1 0 0 0 0 -1 0 0 0 0 1 0"
         id="feColorMatrix3416-4" />
      <feGaussianBlur
         id="feGaussianBlur3418-3"
         in="fbSourceGraphicAlpha"
         stdDeviation="1"
         result="blur" />
      <feColorMatrix
         id="feColorMatrix3420-1"
         result="bluralpha"
         type="matrix"
         values="-1 0 0 0 1 0 -1 0 0 1 0 0 -1 0 1 0 0 0 0.500000 0 " />
      <feOffset
         id="feOffset3422-2"
         in="bluralpha"
         dx="0.000000"
         dy="0.000000"
         result="offsetBlur" />
      <feMerge
         id="feMerge3424-3">
        <feMergeNode
           id="feMergeNode3426-3"
           in="offsetBlur" />
        <feMergeNode
           id="feMergeNode3428-4"
           in="fbSourceGraphic" />
      </feMerge>
    </filter>
    <linearGradient
       inkscape:collect="always"
       xlink:href="#linearGradient-win"
       id="linearGradient5040"
       gradientUnits="userSpaceOnUse"
       x1="18"
       y1="1036.3622"
       x2="18"
       y2="1050.3622"
       gradientTransform="translate(18,0)" />
    <linearGradient
       inkscape:collect="always"
       xlink:href="#linearGradient-win"
       id="linearGradient5044"
       gradientUnits="userSpaceOnUse"
       x1="135"
       y1="1043.3622"
       x2="128"
       y2="1050.3622"
       gradientTransform="matrix(-1,0,0,-1,269.9996,2086.7244)" />
    <linearGradient
       inkscape:collect="always"
       xlink:href="#linearGradient-win"
       id="linearGradient5050"
       gradientUnits="userSpaceOnUse"
       x1="135"
       y1="1043.3622"
       x2="128"
       y2="1050.3622"
       gradientTransform="translate(17.000291,1.00015)" />
    <linearGradient
       inkscape:collect="always"
       xlink:href="#linearGradient-win"
       id="linearGradient5052"
       gradientUnits="userSpaceOnUse"
       gradientTransform="matrix(-1,0,0,-1,288.99989,2085.7246)"
       x1="135"
       y1="1043.3622"
       x2="128"
       y2="1050.3622" />
    <linearGradient
       inkscape:collect="always"
       xlink:href="#linearGradient-linux"
       id="linearGradient5058"
       gradientUnits="userSpaceOnUse"
       gradientTransform="matrix(1.5,0,0,1.75,-13.5,-787.02162)"
       x1="23"
       y1="1021.3622"
       x2="23"
       y2="1029.3622" />
    <linearGradient
       inkscape:collect="always"
       xlink:href="#linearGradient-win"
       id="linearGradient5060"
       gradientUnits="userSpaceOnUse"
       gradientTransform="matrix(1.5,0,0,1.75,-4.5,-787.02162)"
       x1="5"
       y1="1021.3622"
       x2="5"
       y2="1029.3622" />
  </defs>
  <sodipodi:namedview
     id="base"
     pagecolor="#ffffff"
     bordercolor="#66ff66"
     borderopacity="1"
     inkscape:pageopacity="0.0"
     inkscape:pageshadow="2"
     inkscape:zoom="4"
     inkscape:cx="137.40688"
     inkscape:cy="3.5574803"
     inkscape:document-units="px"
     inkscape:current-layer="layer1"
     showgrid="true"
     borderlayer="true"
     showguides="false"
     gridtolerance="20"
     inkscape:window-width="1920"
     inkscape:window-height="1017"
     inkscape:window-x="-8"
     inkscape:window-y="-8"
     inkscape:window-maximized="1"
     inkscape:snap-global="true">
    <inkscape:grid
       type="xygrid"
       id="grid2985"
       empspacing="5"
       visible="true"
       enabled="true"
       snapvisiblegridlinesonly="true" />
    <inkscape:grid
       type="xygrid"
       id="grid2987"
       empspacing="5"
       visible="true"
       enabled="true"
       snapvisiblegridlinesonly="true"
       spacingx="18px"
       spacingy="18px"
       color="#0000ff"
       opacity="0.50196078" />
  </sodipodi:namedview>
  <metadata
     id="metadata7">
    <rdf:RDF>
      <cc:Work
         rdf:about="">
        <dc:format>image/svg+xml</dc:format>
        <dc:type
           rdf:resource="http://purl.org/dc/dcmitype/StillImage" />
        <dc:title></dc:title>
      </cc:Work>
    </rdf:RDF>
  </metadata>
  <g
     inkscape:label="Layer 1"
     inkscape:groupmode="layer"
     id="layer1"
     transform="translate(0,-1034.3622)">
    <path
       style="fill:#000000;fill-opacity:0.5023474;stroke:none"
       d="m 93.4,1072.3622 8.6,0 3,3 0,9.6 c 0,0.7395 -0.66051,1.4 -1.4,1.4 l -10.2,0 c -0.739491,0 -1.4,-0.6605 -1.4,-1.4 l 0,-11.2 c 0,-0.7395 0.660509,-1.4 1.4,-1.4 z"
       id="path3957"
       inkscape:connector-curvature="0"
       sodipodi:nodetypes="sccssssss" />
    <path
       id="path3002"
       d="m 10,1036.3622 c -0.5560614,0 -1,0.4439 -1,1 l 0,2 -3,0 c -0.5560614,0 -1,0.4439 -1,1 l 0,3 -2,0 c -0.5560614,0 -1,0.4439 -1,1 l 0,1 c 0,0.5561 0.4439386,1 1,1 l 2,0 0,3 c 0,0.5561 0.4439386,1 1,1 l 3,0 0,-2 c 0,-0.5561 0.4439386,-1 1,-1 l 1,0 c 0.556061,0 1,0.4439 1,1 l 0,2 3,0 c 0.556061,0 1,-0.4439 1,-1 l 0,-3 -2,0 c -0.556061,0 -1,-0.4439 -1,-1 l 0,-1 c 0,-0.5561 0.443939,-1 1,-1 l 2,0 0,-3 c 0,-0.5561 -0.443939,-1 -1,-1 l -3,0 0,-2 c 0,-0.5561 -0.443939,-1 -1,-1 l -1,0 z"
       style="opacity:0.98999999000000005;fill:url(#linearGradient4213);fill-opacity:1;stroke:none;display:inline;"
       inkscape:connector-curvature="0" />
    <path
       style="fill:url(#linearGradient4567);fill-opacity:1;stroke:none;display:inline;"
       d="m 20.5625,1036.3622 c -0.865037,0 -1.5625,0.6578 -1.5625,1.4688 l 0,11.0625 c 0,0.8109 0.697463,1.4687 1.5625,1.4687 l 12.875,0 c 0.865036,0 1.5625,-0.6578 1.5625,-1.4687 l 0,-11.0625 c 0,-0.811 -0.697464,-1.4688 -1.5625,-1.4688 z m -0.5625,4 14,0 0,7.531 c 0,0.8109 -0.759963,1.469 -1.625,1.469 l -10.75,0 c -0.865037,0 -1.625,-0.6578 -1.625,-1.4687 z"
       id="rect6260-0-9"
       inkscape:connector-curvature="0"
       sodipodi:nodetypes="sssssssssccssssc" />
    <path
       style="fill:url(#linearGradient4231);fill-opacity:1;stroke:none;display:inline;"
       d="m 24.875,1041.331 -1.40625,1.4063 2.125,2.125 -2.125,2.125 1.40625,1.4062 2.125,-2.125 2.125,2.125 1.40625,-1.4062 -2.125,-2.125 2.125,-2.125 -1.40625,-1.4063 -2.125,2.125 z"
       id="rect3999-6-4"
       inkscape:connector-curvature="0"
       sodipodi:nodetypes="ccccccccccccc"
       inkscape:export-filename="C:\xul\verticaltoolbar@xuldev.org\source\path3580.png"
       inkscape:export-xdpi="90.083"
       inkscape:export-ydpi="90.083" />
    <path
       style="fill:url(#linearGradient4247);fill-opacity:1;stroke:none;display:inline;"
       d="m 42,1041.3622 3,0 3,3.5 -2.999999,3.5 -3.000001,0 3,-3.5 z"
       id="rect5858-4-1"
       inkscape:connector-curvature="0"
       sodipodi:nodetypes="ccccccc"
       inkscape:export-xdpi="90.083"
       inkscape:export-ydpi="90.083"
       inkscape:export-filename="C:\xul\verticaltoolbar@xuldev.org\source\path3580.png" />
    <path
       sodipodi:type="arc"
       style="fill:#000000;fill-opacity:0.5023474;stroke:none"
       id="path3027"
       sodipodi:cx="64"
       sodipodi:cy="30"
       sodipodi:rx="6"
       sodipodi:ry="6"
       d="m 70,30 c 0,3.313708 -2.686292,6 -6,6 -3.313708,0 -6,-2.686292 -6,-6 0,-3.313708 2.686292,-6 6,-6 3.313708,0 6,2.686292 6,6 z"
       transform="matrix(1.1666667,0,0,1.1666667,-11.666667,1044.3622)" />
    <path
       transform="matrix(0.83333333,0,0,0.83333333,9.6666683,1054.3622)"
       d="m 70,30 c 0,3.313708 -2.686292,6 -6,6 -3.313708,0 -6,-2.686292 -6,-6 0,-3.313708 2.686292,-6 6,-6 3.313708,0 6,2.686292 6,6 z"
       sodipodi:ry="6"
       sodipodi:rx="6"
       sodipodi:cy="30"
       sodipodi:cx="64"
       id="path3797"
       style="fill:#00ff00;fill-opacity:1;stroke:none"
       sodipodi:type="arc" />
    <rect
       style="fill:#000000;fill-opacity:0.5023474;stroke:none"
       id="rect3799"
       width="2"
       height="1"
       x="62"
       y="1075.3622"
       ry="0"
       rx="0" />
    <rect
       rx="0"
       ry="0"
       y="1077.3622"
       x="62"
       height="6"
       width="2"
       id="rect3801"
       style="fill:#000000;fill-opacity:0.5023474;stroke:none" />
    <rect
       style="opacity:0.98999999;fill:#000000;fill-opacity:0.5023474;stroke:none;display:inline"
       id="rect4441"
       width="11"
       height="11"
       x="5"
       y="1075.3622"
       ry="1.0037209" />
    <rect
       style="opacity:0.98999999;fill:#000000;fill-opacity:0.5023474;stroke:none;display:inline"
       id="rect4451"
       width="6"
       height="3"
       x="2"
       y="1079.3622"
       ry="1.0037209" />
    <rect
       style="opacity:0.98999999;fill:#00ff00;fill-opacity:1;stroke:none;display:inline"
       id="rect4451-5"
       width="6"
       height="3"
       x="13"
       y="1079.3622"
       ry="1.0037209" />
    <rect
       style="opacity:0.98999999;fill:#000000;fill-opacity:0.5023474;stroke:none;display:inline"
       id="rect4451-5-1"
       width="6"
       height="3"
       x="1072.3622"
       y="-12"
       ry="1.0037209"
       transform="matrix(0,1,-1,0,0,0)" />
    <rect
       style="opacity:0.98999999;fill:#00ff00;fill-opacity:1;stroke:none;display:inline"
       id="rect4451-5-1-4"
       width="6"
       height="3"
       x="1083.3622"
       y="-12"
       ry="1.0037209"
       transform="matrix(0,1,-1,0,0,0)" />
    <path
       style="fill:url(#linearGradient4255);fill-opacity:1;stroke:none;"
       d="M 63 2 C 59.134007 2 56 5.1340066 56 9 C 56 12.865993 59.134007 16 63 16 C 66.865993 16 70 12.865993 70 9 C 70 5.1340066 66.865993 2 63 2 z M 63 4 C 65.761424 4 68 6.2385763 68 9 C 68 11.761424 65.761424 14 63 14 C 60.238576 14 58 11.761424 58 9 C 58 6.2385763 60.238576 4 63 4 z "
       id="path3818"
       transform="translate(0,1034.3622)" />
    <rect
       rx="0"
       ry="0"
       y="1039.3622"
       x="62"
       height="1"
       width="2"
       id="rect3822"
       style="fill:url(#linearGradient4271);fill-opacity:1;stroke:none;" />
    <rect
       style="fill:url(#linearGradient4263);fill-opacity:1;stroke:none;"
       id="rect3824"
       width="2"
       height="6"
       x="62"
       y="1041.3622"
       ry="0"
       rx="0" />
    <path
       sodipodi:nodetypes="sccssssss"
       inkscape:connector-curvature="0"
       id="path3830"
       d="m 75.4,1072.3622 8.6,0 3,3 0,9.6 c 0,0.7395 -0.660509,1.4 -1.4,1.4 l -10.2,0 c -0.739491,0 -1.4,-0.6605 -1.4,-1.4 l 0,-11.2 c 0,-0.7395 0.660509,-1.4 1.4,-1.4 z"
       style="fill:#000000;fill-opacity:0.5023474;stroke:none" />
    <path
       style="fill:#00ff00;fill-opacity:1;stroke:none"
       d="m 83,1073.3622 3,3 -3,0 z"
       id="rect3832"
       inkscape:connector-curvature="0"
       sodipodi:nodetypes="cccc" />
    <path
       style="fill:#00ff00;fill-opacity:1;stroke:none"
       d="m 74.999984,1081.8622 2,0 3,3.5 -2,0 z"
       id="rect3836"
       inkscape:connector-curvature="0"
       sodipodi:nodetypes="ccccc" />
    <path
       sodipodi:nodetypes="ccccc"
       inkscape:connector-curvature="0"
       id="path3839"
       d="m 74.999984,1081.8622 2,0 3,-3.5 -2,0 z"
       style="fill:#00ff00;fill-opacity:1;stroke:none" />
    <path
       sodipodi:nodetypes="ccccc"
       inkscape:connector-curvature="0"
       id="path3857"
       d="m 85.999984,1081.8622 -2,0 -3,3.5 2,0 z"
       style="fill:#00ff00;fill-opacity:1;stroke:none" />
    <path
       style="fill:#00ff00;fill-opacity:1;stroke:none"
       d="m 85.999984,1081.8622 -2,0 -3,-3.5 2,0 z"
       id="path3859"
       inkscape:connector-curvature="0"
       sodipodi:nodetypes="ccccc" />
    <path
       style="fill:url(#linearGradient4279);fill-opacity:1;stroke:none;"
       d="M 75.40625 2 C 74.666759 2 74 2.66675 74 3.40625 L 74 14.59375 C 74 15.33325 74.666759 16 75.40625 16 L 85.59375 16 C 86.333241 16 87 15.33325 87 14.59375 L 87 5 L 84 2 L 75.40625 2 z M 83 3 L 86 6 L 83 6 L 83 3 z M 78 8 L 80 8 L 77 11.5 L 80 15 L 78 15 L 75 11.5 L 78 8 z M 81 8 L 83 8 L 86 11.5 L 83 15 L 81 15 L 84 11.5 L 81 8 z "
       transform="translate(0,1034.3622)"
       id="path3876" />
    <path
       inkscape:connector-curvature="0"
       style="font-size:medium;font-style:normal;font-variant:normal;font-weight:normal;font-stretch:normal;text-indent:0;text-align:start;text-decoration:none;line-height:normal;letter-spacing:normal;word-spacing:normal;text-transform:none;direction:ltr;block-progression:tb;writing-mode:lr-tb;text-anchor:start;baseline-shift:baseline;color:#000000;fill:#00ff00;fill-opacity:1;fill-rule:nonzero;stroke:none;stroke-width:1.00982428;marker:none;visibility:visible;display:inline;overflow:visible;enable-background:accumulate;font-family:Sans;-inkscape-font-specification:Sans"
       d="m 97.5,1077.3622 2,0 c 0.31628,0 0.499999,0.1846 0.5,0.5 l 0,3.5 1.56251,0 c 0.47187,0 0.58344,0.2606 0.25,0.5938 l -2.618747,3.1562 c -0.16643,0.1663 -0.37354,0.25 -0.59375,0.25 -0.2202,0 -0.42731,-0.083 -0.59375,-0.25 l -2.81875,-3.1562 c -0.33344,-0.3332 -0.22186,-0.5938 0.25,-0.5938 l 1.562487,0 0,-3.5 c 0,-0.3154 0.18427,-0.5 0.5,-0.5 z"
       id="rect6535-1-7-2-4"
       sodipodi:nodetypes="ssscsccsccscss"
       inkscape:export-filename="C:\xul\verticaltoolbar@xuldev.org\source\path3580.png"
       inkscape:export-xdpi="90.083"
       inkscape:export-ydpi="90.083" />
    <path
       sodipodi:nodetypes="cccc"
       inkscape:connector-curvature="0"
       id="path3959"
       d="m 101,1073.3622 3,3 -3,0 z"
       style="fill:#00ff00;fill-opacity:1;stroke:none" />
    <path
       style="fill:url(#linearGradient4287);fill-opacity:1;stroke:none;"
       d="M 93.40625 2 C 92.666759 2 92 2.66675 92 3.40625 L 92 14.59375 C 92 15.33325 92.666759 16 93.40625 16 L 103.59375 16 C 104.33324 16 105 15.33325 105 14.59375 L 105 5 L 102 2 L 93.40625 2 z M 101 3 L 104 6 L 101 6 L 101 3 z M 97.5 7 L 99.5 7 C 99.81628 7 99.999999 7.1846 100 7.5 L 100 11 L 101.5625 11 C 102.03437 11 102.14594 11.26055 101.8125 11.59375 L 99.1875 14.75 C 99.02107 14.9163 98.81396 15 98.59375 15 C 98.37355 15 98.16644 14.917 98 14.75 L 95.1875 11.59375 C 94.85406 11.26055 94.96564 11 95.4375 11 L 97 11 L 97 7.5 C 97 7.1846 97.18427 7 97.5 7 z "
       transform="translate(0,1034.3622)"
       id="path3961" />
    <path
       inkscape:connector-curvature="0"
       style="font-size:medium;font-style:normal;font-variant:normal;font-weight:normal;font-stretch:normal;text-indent:0;text-align:start;text-decoration:none;line-height:normal;letter-spacing:normal;word-spacing:normal;text-transform:none;direction:ltr;block-progression:tb;writing-mode:lr-tb;text-anchor:start;baseline-shift:baseline;color:#000000;fill:#000000;fill-opacity:0.50196078;fill-rule:nonzero;stroke:none;stroke-width:1.00982428;marker:none;visibility:visible;display:inline;overflow:visible;enable-background:accumulate;font-family:Sans;-inkscape-font-specification:Sans"
       d="m 115.56246,1078.0625 2.87458,0 c 0.31618,0 0.56283,-0.2471 0.56283,-0.5625 l 0,-2.1378 2.55768,0 c 0.47172,0 0.58326,-0.2606 0.24992,-0.5937 l -4.21391,-3.1563 c -0.16637,-0.1663 -0.37342,-0.25 -0.59356,-0.25 -0.22013,0 -0.42717,0.083 -0.59356,0.25 l -4.21491,3.1342 c -0.33334,0.3331 -0.22179,0.6158 0.24992,0.6158 l 2.55855,-10e-5 0,2.1378 c 0,0.3154 0.24683,0.5625 0.56246,0.5625 z"
       id="rect6535-1-7-2-3-2-6-0"
       sodipodi:nodetypes="csscsccsccscssc" />
    <rect
       style="opacity:0.98999999;fill:#ffffff;fill-opacity:1;stroke:#0000ff;stroke-width:0.99993414;stroke-miterlimit:4;stroke-opacity:0.50196078;stroke-dasharray:none;display:inline"
       id="rect6142"
       width="13.000066"
       height="8.0000658"
       x="110.49961"
       y="1077.8625"
       ry="1.5002365" />
    <path
       style="fill:none;stroke:#0000ff;stroke-width:1;stroke-linecap:butt;stroke-linejoin:miter;stroke-miterlimit:4;stroke-opacity:0.50196078;stroke-dasharray:none;display:inline"
       d="m 110.5,1079.8622 6.5,3 6.5,-3"
       id="path4715"
       inkscape:connector-curvature="0"
       sodipodi:nodetypes="ccc" />
    <path
       sodipodi:nodetypes="csscsccsccscssc"
       id="path3995"
       d="m 115.56246,1042.0621 2.87458,0 c 0.31618,0 0.56283,-0.2471 0.56283,-0.5625 l 0,-2.1378 2.55768,0 c 0.47172,0 0.58326,-0.2606 0.24992,-0.5937 l -4.21391,-3.1563 c -0.16637,-0.1663 -0.37342,-0.25 -0.59356,-0.25 -0.22013,0 -0.42717,0.083 -0.59356,0.25 l -4.21491,3.1342 c -0.33334,0.3331 -0.22179,0.6158 0.24992,0.6158 l 2.55855,-10e-5 0,2.1378 c 0,0.3154 0.24683,0.5625 0.56246,0.5625 z"
       style="font-size:medium;font-style:normal;font-variant:normal;font-weight:normal;font-stretch:normal;text-indent:0;text-align:start;text-decoration:none;line-height:normal;letter-spacing:normal;word-spacing:normal;text-transform:none;direction:ltr;block-progression:tb;writing-mode:lr-tb;text-anchor:start;baseline-shift:baseline;color:#000000;fill:url(#linearGradient4295);fill-opacity:1;fill-rule:nonzero;stroke:none;stroke-width:1.00982427999999990;marker:none;visibility:visible;display:inline;overflow:visible;enable-background:accumulate;font-family:Sans;-inkscape-font-specification:Sans;"
       inkscape:connector-curvature="0" />
    <path
       style="font-size:medium;font-style:normal;font-variant:normal;font-weight:normal;font-stretch:normal;text-indent:0;text-align:start;text-decoration:none;line-height:normal;letter-spacing:normal;word-spacing:normal;text-transform:none;direction:ltr;block-progression:tb;writing-mode:lr-tb;text-anchor:start;baseline-shift:baseline;opacity:0.98999999000000005;color:#000000;fill:url(#linearGradient4303);fill-opacity:1;fill-rule:nonzero;stroke:none;stroke-width:0.99993414000000003;marker:none;visibility:visible;display:inline;overflow:visible;enable-background:accumulate;font-family:Sans;-inkscape-font-specification:Sans;"
       d="M 112 7 C 110.90054 7 110 7.9005 110 9 L 110 14 C 110 15.0995 110.90054 16 112 16 L 122 16 C 123.09946 16 124 15.0995 124 14 L 124 9 C 124 7.9005 123.09946 7 122 7 L 112 7 z M 112 8 L 122 8 C 122.5628 8 123 8.4372 123 9 L 123 9.15625 L 117 11.9375 L 111 9.15625 L 111 9 C 111 8.4372 111.4372 8 112 8 z M 111 10.28125 L 116.78125 12.9375 L 117 13.03125 L 117.21875 12.9375 L 123 10.28125 L 123 14 C 123 14.5628 122.5628 15 122 15 L 112 15 C 111.4372 15 111 14.5628 111 14 L 111 10.28125 z "
       transform="translate(0,1034.3622)"
       id="rect3997" />
    <path
       style="opacity:0.98999999000000005;fill:url(#linearGradient4973);fill-opacity:1;stroke:none;display:inline;"
       d="m 132,1040.3622 c -0.71353,0 -1,0.2871 -1,1 l 0,4 -2.5,2.5 c -0.47123,0.5 -0.5,1.4864 0,2 0.5,0.5136 1.5,0.4831 2,0 l 2.5,-2.5 3.99952,0 c 0.71353,0 1.0001,-0.2871 1.0001,-1 z"
       id="rect5168-7-3-6"
       inkscape:connector-curvature="0"
       sodipodi:nodetypes="cscczccscc"
       inkscape:export-filename="C:\xul\verticaltoolbar@xuldev.org\source\path3580.png"
       inkscape:export-xdpi="90.083"
       inkscape:export-ydpi="90.083" />
    <rect
       style="opacity:0.98999999000000005;fill:url(#linearGradient4351);fill-opacity:1;stroke:none;display:inline;"
       id="rect6197-4"
       width="2"
       height="14"
       x="163"
       y="1036.3622"
       ry="0.76642334"
       inkscape:export-filename="C:\xul\verticaltoolbar@xuldev.org\source\path3580.png"
       inkscape:export-xdpi="90.083"
       inkscape:export-ydpi="90.083" />
    <path
       style="fill:url(#linearGradient4359);fill-opacity:1;stroke:none;display:inline;"
       d="m 164,1037.3622 c -0.0332,7.1616 3.28728,9 7.5,9 4.21272,0 7.5,-2 7.5,-9 -4.48985,2.3486 -4.56129,0.016 -7.5,0 -2.93871,-0.016 -2.98238,2.3167 -7.5,0 z m 2,3 5,0 c 0,0 -2.3185,6.3506 -5,0 z m 11,0 c -2.58775,6.3819 -5,0 -5,0 z"
       id="path6215-8-9"
       inkscape:connector-curvature="0"
       sodipodi:nodetypes="cscsccccccc"
       inkscape:export-filename="C:\xul\verticaltoolbar@xuldev.org\source\path3580.png"
       inkscape:export-xdpi="90.083"
       inkscape:export-ydpi="90.083" />
    <rect
       style="fill:#000000;fill-opacity:0.50196078;stroke:none"
       id="rect4062"
       width="14"
       height="12"
       x="182"
       y="1072.3622"
       ry="2.0000174" />
    <rect
       style="fill:#00ff00;fill-opacity:0.50196078;stroke:none"
       id="rect4064"
       width="10"
       height="8"
       x="184"
       y="1074.3622"
       ry="0" />
    <rect
       ry="0"
       y="1077.3622"
       x="188"
       height="7"
       width="8"
       id="rect4066"
       style="fill:#00ff00;fill-opacity:0.50196078;stroke:none" />
    <path
       style="fill:#000000;fill-opacity:0.50196078;stroke:none"
       d="m 189,1078.3622 7,0 -7,7 z"
       id="rect4068"
       inkscape:connector-curvature="0"
       sodipodi:nodetypes="cccc" />
    <path
       style="fill:#000000;fill-opacity:0.50196078;stroke:none"
       d="m 191.5,1082.8622 2,-2 3.5,3.5 -2,2 z"
       id="rect4071"
       inkscape:connector-curvature="0"
       sodipodi:nodetypes="ccccc" />
    <path
       style="fill:url(#linearGradient4369);fill-opacity:1;stroke:none;"
       d="M 184 2 C 182.89199 2 182 2.8919904 182 4 L 182 12 C 182 13.10801 182.89199 14 184 14 L 188 14 L 188 12 L 184 12 L 184 4 L 194 4 L 194 7 L 196 7 L 196 4 C 196 2.8919904 195.10801 2 194 2 L 184 2 z "
       transform="translate(0,1034.3622)"
       id="rect4074" />
    <path
       style="fill:url(#linearGradient4377);fill-opacity:1;stroke:none;"
       d="M 189 8 L 189 15 L 191.5 12.5 L 195 16 L 197 14 L 193.5 10.5 L 196 8 L 189 8 z "
       transform="translate(0,1034.3622)"
       id="path4080" />
    <path
       style="fill:#000000;fill-opacity:0.5023474;stroke:none"
       d="m 201.4,1072.3622 8.6,0 3,3 0,9.6 c 0,0.7395 -0.66051,1.4 -1.4,1.4 l -10.2,0 c -0.73949,0 -1.4,-0.6605 -1.4,-1.4 l 0,-11.2 c 0,-0.7395 0.66051,-1.4 1.4,-1.4 z"
       id="path4087"
       inkscape:connector-curvature="0"
       sodipodi:nodetypes="sccssssss" />
    <path
       sodipodi:nodetypes="cccc"
       inkscape:connector-curvature="0"
       id="path4089"
       d="m 209,1073.3622 3,3 -3,0 z"
       style="fill:#00ff00;fill-opacity:1;stroke:none" />
    <path
       sodipodi:type="arc"
       style="fill:#00ff00;fill-opacity:0.50196078;stroke:none"
       id="path4109"
       sodipodi:cx="205.5"
       sodipodi:cy="26.5"
       sodipodi:rx="3.5"
       sodipodi:ry="3.5"
       d="m 209,26.5 c 0,1.932997 -1.567,3.5 -3.5,3.5 -1.933,0 -3.5,-1.567003 -3.5,-3.5 0,-1.932997 1.567,-3.5 3.5,-3.5 1.933,0 3.5,1.567003 3.5,3.5 z"
       transform="translate(-0.9999998,1052.3622)" />
    <path
       transform="matrix(0.65714286,0,0,0.65714286,69.457142,1061.4479)"
       d="m 209,26.5 c 0,1.932997 -1.567,3.5 -3.5,3.5 -1.933,0 -3.5,-1.567003 -3.5,-3.5 0,-1.932997 1.567,-3.5 3.5,-3.5 1.933,0 3.5,1.567003 3.5,3.5 z"
       sodipodi:ry="3.5"
       sodipodi:rx="3.5"
       sodipodi:cy="26.5"
       sodipodi:cx="205.5"
       id="path4127"
       style="fill:#000000;fill-opacity:0.50196078;stroke:none"
       sodipodi:type="arc" />
    <rect
       style="fill:#00ff00;fill-opacity:0.50196078;stroke:none"
       id="rect4166"
       width="1.4925745"
       height="5.9702978"
       x="-619.01373"
       y="910.14575"
       ry="0.33516222"
       transform="matrix(0.70710679,-0.70710677,0.70710679,0.70710677,0,0)" />
    <path
       style="fill:url(#linearGradient4385);fill-opacity:1;stroke:none;"
       d="M 201.40625 2 C 200.66676 2 200 2.66675 200 3.40625 L 200 14.59375 C 200 15.33325 200.66676 16 201.40625 16 L 211.59375 16 C 212.33324 16 213 15.33325 213 14.59375 L 213 5 L 210 2 L 201.40625 2 z M 209 3 L 212 6 L 209 6 L 209 3 z M 204.5 5 C 206.433 5 208 6.5670034 208 8.5 C 208 9.1897569 207.78198 9.8330152 207.4375 10.375 L 210.90625 13.84375 C 211.03755 13.975045 211.03755 14.181205 210.90625 14.3125 L 210.3125 14.90625 C 210.1812 15.037545 209.97505 15.037545 209.84375 14.90625 L 206.375 11.4375 C 205.83302 11.781984 205.18976 12 204.5 12 C 202.567 12 201 10.432997 201 8.5 C 201 6.5670034 202.567 5 204.5 5 z "
       transform="translate(0,1034.3622)"
       id="path4168" />
    <path
       sodipodi:type="arc"
       style="fill:url(#linearGradient4393);fill-opacity:1;stroke:none;"
       id="path4174"
       sodipodi:cx="205.5"
       sodipodi:cy="26.5"
       sodipodi:rx="3.5"
       sodipodi:ry="3.5"
       d="m 209,26.5 c 0,1.932997 -1.567,3.5 -3.5,3.5 -1.933,0 -3.5,-1.567003 -3.5,-3.5 0,-1.932997 1.567,-3.5 3.5,-3.5 1.933,0 3.5,1.567003 3.5,3.5 z"
       transform="matrix(0.65714286,0,0,0.65714286,69.457142,1025.4479)" />
    <path
       style="fill:url(#linearGradient4401);fill-opacity:1;fill-rule:nonzero;stroke:none;display:inline;"
       d="m 223,1048.3622 0,-4 -3,0 c -0.5,0 -2,-0.5 -2,-1 0,-0.5 1.5,-1 2,-1 l 3,0 0,-4 c 1.5,0 2.84692,1.3139 3,3 l 3,0 2,-2 0,8 -2,-2 -3,0 c -0.15308,1.6861 -1.5,3 -3,3 z"
       id="rect3839-7"
       inkscape:connector-curvature="0"
       inkscape:export-filename="C:\xul\verticaltoolbar@xuldev.org\source\path3580.png"
       inkscape:export-xdpi="90.083"
       inkscape:export-ydpi="90.083"
       sodipodi:nodetypes="ccsssccccccccc" />
    <rect
       style="fill:url(#linearGradient4409);fill-opacity:1;stroke:none;"
       id="rect4188"
       width="10"
       height="2"
       x="238"
       y="6"
       transform="translate(0,1034.3622)"
       ry="0" />
    <rect
       ry="0"
       y="1043.8622"
       x="238"
       height="2"
       width="10"
       id="rect4190"
       style="fill:url(#linearGradient4417);fill-opacity:1;stroke:none;" />
    <path
       style="font-size:medium;font-style:normal;font-variant:normal;font-weight:normal;font-stretch:normal;text-indent:0;text-align:start;text-decoration:none;line-height:normal;letter-spacing:normal;word-spacing:normal;text-transform:none;direction:ltr;block-progression:tb;writing-mode:lr-tb;text-anchor:start;baseline-shift:baseline;color:#000000;fill:#000000;fill-opacity:0.50196078;stroke:none;stroke-width:0.87173325;marker:none;visibility:visible;display:inline;overflow:visible;enable-background:accumulate;font-family:Sans;-inkscape-font-specification:Sans"
       d="m 261,1071.8622 0,12.5 -4,2.4997 c -0.32423,0.1702 -1.06632,-0.3287 -1,-0.7 l 1,-5.3 -3.4,-3.5 c -0.39523,-0.4177 -0.6,-0.9997 0.4,-0.9997 l 4.24704,-3e-4 2.35887,-4.2637 c 0.0994,-0.1896 0.22567,-0.2278 0.39409,-0.236 z"
       inkscape:connector-curvature="0"
       sodipodi:nodetypes="cccccccccc"
       id="path176" />
    <path
       id="path4266"
       sodipodi:nodetypes="cccccccccc"
       inkscape:connector-curvature="0"
       d="m 261,1071.8622 0,12.5 4,2.4997 c 0.32423,0.1702 1.06632,-0.3287 1,-0.7 l -1,-5.3 3.4,-3.5 c 0.39523,-0.4177 0.6,-0.9997 -0.4,-0.9997 l -4.24704,-3e-4 -2.35887,-4.2637 c -0.0994,-0.1896 -0.22567,-0.2278 -0.39409,-0.236 z"
       style="font-size:medium;font-style:normal;font-variant:normal;font-weight:normal;font-stretch:normal;text-indent:0;text-align:start;text-decoration:none;line-height:normal;letter-spacing:normal;word-spacing:normal;text-transform:none;direction:ltr;block-progression:tb;writing-mode:lr-tb;text-anchor:start;baseline-shift:baseline;color:#000000;fill:#000000;fill-opacity:0.50196078;stroke:none;stroke-width:0.87173325;marker:none;visibility:visible;display:inline;overflow:visible;enable-background:accumulate;font-family:Sans;-inkscape-font-specification:Sans" />
    <path
       style="font-size:medium;font-style:normal;font-variant:normal;font-weight:normal;font-stretch:normal;text-indent:0;text-align:start;text-decoration:none;line-height:normal;letter-spacing:normal;word-spacing:normal;text-transform:none;direction:ltr;block-progression:tb;writing-mode:lr-tb;text-anchor:start;baseline-shift:baseline;color:#000000;fill:url(#linearGradient4445);fill-opacity:1;stroke:none;stroke-width:0.87173325000000002;marker:none;visibility:visible;display:inline;overflow:visible;enable-background:accumulate;font-family:Sans;-inkscape-font-specification:Sans;"
       d="m 261,1035.7997 c -0.16842,0.01 -0.30685,0.029 -0.40625,0.2188 l -2.34375,4.2812 -4.25,0 c -1,0 -0.80148,0.5823 -0.40625,1 l 3.40625,3.5 -1,5.2813 c -0.0663,0.3713 0.67577,0.8889 1,0.7187 l 4,-2.5 4,2.5 c 0.32423,0.1702 1.06632,-0.3474 1,-0.7187 l -1,-5.2813 3.40625,-3.5 c 0.39523,-0.4177 0.59375,-1 -0.40625,-1 l -4.25,0 -2.34375,-4.2812 c -0.0994,-0.1896 -0.23783,-0.2106 -0.40625,-0.2188 z"
       id="path4268"
       inkscape:connector-curvature="0" />
    <path
       transform="matrix(1.1666667,0,0,1.1666667,204.33333,1044.3622)"
       d="m 70,30 c 0,3.313708 -2.686292,6 -6,6 -3.313708,0 -6,-2.686292 -6,-6 0,-3.313708 2.686292,-6 6,-6 3.313708,0 6,2.686292 6,6 z"
       sodipodi:ry="6"
       sodipodi:rx="6"
       sodipodi:cy="30"
       sodipodi:cx="64"
       id="path4273"
       style="fill:#000000;fill-opacity:0.5023474;stroke:none"
       sodipodi:type="arc" />
    <path
       sodipodi:type="arc"
       style="fill:#00ff00;fill-opacity:1;stroke:none"
       id="path4275"
       sodipodi:cx="64"
       sodipodi:cy="30"
       sodipodi:rx="6"
       sodipodi:ry="6"
       d="m 70,30 c 0,3.313708 -2.686292,6 -6,6 -3.313708,0 -6,-2.686292 -6,-6 0,-3.313708 2.686292,-6 6,-6 3.313708,0 6,2.686292 6,6 z"
       transform="matrix(0.83333333,0,0,0.83333333,225.66667,1054.3622)" />
    <path
       style="fill:#000000;fill-opacity:0.5023474;stroke:none"
       d="m 280,1076.3622 0,3.5 1.25,1.25 c 1,1 -0.25,2.25 -1.25,1.25 l -2,-2 0,-4 c 0,-1 2,-1 2,0 z"
       id="rect4279"
       inkscape:connector-curvature="0"
       sodipodi:nodetypes="ccscccc" />
    <path
       style="fill:url(#linearGradient4453);fill-opacity:1;stroke:none;"
       d="M 279 2 C 275.13401 2 272 5.1340066 272 9 C 272 12.865993 275.13401 16 279 16 C 282.86599 16 286 12.865993 286 9 C 286 5.1340066 282.86599 2 279 2 z M 279 4 C 281.76142 4 284 6.2385763 284 9 C 284 11.761424 281.76142 14 279 14 C 276.23858 14 274 11.761424 274 9 C 274 6.2385763 276.23858 4 279 4 z "
       transform="translate(0,1034.3622)"
       id="path4282" />
    <path
       sodipodi:nodetypes="ccscccc"
       inkscape:connector-curvature="0"
       id="path4286"
       d="m 280,1040.3622 0,3.5 1.25,1.25 c 1,1 -0.25,2.25 -1.25,1.25 l -2,-2 0,-4 c 0,-1 2,-1 2,0 z"
       style="fill:url(#linearGradient4461);fill-opacity:1;stroke:none;" />
    <rect
       style="fill:url(#linearGradient5060);fill-opacity:1;stroke:none;filter:url(#filter5189-7)"
       id="rect3048"
       width="12"
       height="14"
       x="3"
       y="1000.3622"
       rx="0"
       ry="0" />
    <rect
       ry="0"
       rx="0"
       y="1000.3622"
       x="21"
       height="14"
       width="12"
       id="rect3826"
       style="fill:url(#linearGradient5058);fill-opacity:1;stroke:none;filter:url(#filter5189-7)" />
    <rect
       style="fill:url(#linearGradient-mac);fill-opacity:1;stroke:none;filter:url(#filter5189-7)"
       id="rect3838"
       width="12"
       height="14"
       x="39"
       y="1000.3622"
       rx="0"
       ry="0" />
    <path
       sodipodi:nodetypes="sssssssssccssssc"
       inkscape:connector-curvature="0"
       id="path5038"
       d="m 38.5625,1036.3622 c -0.865037,0 -1.5625,0.6578 -1.5625,1.4688 l 0,11.0625 c 0,0.8109 0.697463,1.4687 1.5625,1.4687 l 12.875,0 c 0.865036,0 1.5625,-0.6578 1.5625,-1.4687 l 0,-11.0625 c 0,-0.811 -0.697464,-1.4688 -1.5625,-1.4688 z m -0.5625,4 14,0 0,7.531 c 0,0.8109 -0.759963,1.469 -1.625,1.469 l -10.75,0 c -0.865037,0 -1.625,-0.6578 -1.625,-1.4687 z"
       style="fill:url(#linearGradient5040);fill-opacity:1;stroke:none;display:inline;" />
    <path
       inkscape:export-ydpi="90.083"
       inkscape:export-xdpi="90.083"
       inkscape:export-filename="C:\xul\verticaltoolbar@xuldev.org\source\path3580.png"
       sodipodi:nodetypes="cscczccscc"
       inkscape:connector-curvature="0"
       id="path5042"
       d="m 137.9996,1046.3622 c 0.7135,0 1,-0.2871 1,-1 l 0,-4 2.5,-2.5 c 0.4712,-0.5 0.5,-1.4864 0,-2 -0.5,-0.5136 -1.5,-0.4831 -2,0 l -2.5,2.5 -3.9995,0 c -0.7136,0 -1.0001,0.2871 -1.0001,1 z"
       style="opacity:0.98999999000000005;fill:url(#linearGradient5044);fill-opacity:1;stroke:none;display:inline;" />
    <path
       inkscape:export-ydpi="90.083"
       inkscape:export-xdpi="90.083"
       inkscape:export-filename="C:\xul\verticaltoolbar@xuldev.org\source\path3580.png"
       sodipodi:nodetypes="cscczccscc"
       inkscape:connector-curvature="0"
       id="path5046"
       d="m 149.00029,1041.3624 c -0.71353,0 -1,0.2871 -1,1 l 0,4 -2.5,2.5 c -0.47123,0.5 -0.5,1.4864 0,2 0.5,0.5136 1.5,0.4831 2,0 l 2.5,-2.5 3.99952,0 c 0.71353,0 1.0001,-0.2871 1.0001,-1 z"
       style="opacity:0.98999999000000005;fill:url(#linearGradient5050);fill-opacity:1;stroke:none;display:inline;" />
    <path
       style="opacity:0.98999999000000005;fill:url(#linearGradient5052);fill-opacity:1;stroke:none;display:inline;"
       d="m 156.99989,1045.3624 c 0.7135,0 1,-0.2871 1,-1 l 0,-4 2.5,-2.5 c 0.4712,-0.5 0.5,-1.4864 0,-2 -0.5,-0.5136 -1.5,-0.4831 -2,0 l -2.5,2.5 -3.9995,0 c -0.7136,0 -1.0001,0.2871 -1.0001,1 z"
       id="path5048"
       inkscape:connector-curvature="0"
       sodipodi:nodetypes="cscczccscc"
       inkscape:export-filename="C:\xul\verticaltoolbar@xuldev.org\source\path3580.png"
       inkscape:export-xdpi="90.083"
       inkscape:export-ydpi="90.083" />
  </g>
</svg>
